<svg width="586" height="520" viewBox="0 0 586 520" fill="none" xmlns="http://www.w3.org/2000/svg">
<path fill-rule="evenodd" clip-rule="evenodd" d="M328.684 49.7829C346.273 54.7063 362.877 64.0857 376.712 77.9211L481.079 182.288C524.036 225.246 524.036 294.894 481.079 337.851L376.712 442.218C363.006 455.924 346.583 465.257 329.177 470.217C366.201 480.58 407.59 471.201 436.712 442.079L541.079 337.712C584.036 294.754 584.036 225.106 541.079 182.148L436.712 77.7817C407.46 48.5299 365.833 39.197 328.684 49.7829Z" fill="#EBEDF0"/>
<path fill-rule="evenodd" clip-rule="evenodd" d="M346.712 77.9213C303.754 34.9637 234.106 34.9637 191.148 77.9214L86.7817 182.288C43.8241 225.246 43.8241 294.894 86.7818 337.852L191.149 442.218C234.106 485.176 303.754 485.176 346.712 442.218L451.079 337.852C494.036 294.894 494.036 225.246 451.079 182.288L346.712 77.9213ZM179.537 127.242C183.691 111.012 198.201 99 215.694 99C236.347 99 253.139 115.816 253.139 136.5V356.813C253.139 380.133 234.3 399 211.014 399C192.409 399 176.846 386.871 171.229 370.172C168.947 370.582 166.607 370.875 164.208 370.875C140.923 370.875 122.083 352.008 122.083 328.688C122.083 325.875 122.376 323.121 122.902 320.426C105.935 313.395 94 296.637 94 277.125C94 259.723 103.537 244.723 117.578 236.637C114.594 230.426 112.722 223.57 112.722 216.188C112.722 196.617 124.716 179.859 141.8 172.828C141.157 170.191 140.806 167.438 140.806 164.625C140.806 143.941 157.597 127.125 178.25 127.125C178.484 127.125 178.689 127.154 178.894 127.184C179.098 127.213 179.303 127.242 179.537 127.242ZM407.422 236.637C421.463 244.723 431 259.723 431 277.125C431 296.637 419.065 313.395 402.098 320.426C402.624 323.121 402.917 325.875 402.917 328.688C402.917 352.008 384.077 370.875 360.792 370.875C358.393 370.875 356.053 370.582 353.771 370.172C348.154 386.871 332.591 399 313.986 399C290.7 399 271.861 380.133 271.861 356.813V136.5C271.861 115.758 288.653 99 309.306 99C326.799 99 341.309 111.012 345.463 127.242C345.661 127.242 345.859 127.215 346.063 127.187C346.282 127.156 346.508 127.125 346.75 127.125C367.403 127.125 384.194 143.941 384.194 164.625C384.194 167.438 383.785 170.191 383.2 172.828C400.284 179.859 412.278 196.617 412.278 216.188C412.278 223.57 410.464 230.426 407.422 236.637Z" fill="#EBEDF0"/>
<path d="M195.12 225.12L160.56 306.4C159.813 308.427 158.64 310.027 157.04 311.2C155.547 312.267 153.893 312.8 152.08 312.8C149.2 312.8 147.067 312 145.68 310.4C144.293 308.8 143.6 306.827 143.6 304.48C143.6 303.52 143.76 302.507 144.08 301.44L183.92 205.76C184.773 203.627 186.053 201.973 187.76 200.8C189.573 199.627 191.493 199.147 193.52 199.36C195.44 199.36 197.2 199.947 198.8 201.12C200.507 202.187 201.733 203.733 202.48 205.76L241.84 299.52C242.373 300.907 242.64 302.187 242.64 303.36C242.64 306.24 241.68 308.533 239.76 310.24C237.947 311.947 235.92 312.8 233.68 312.8C231.76 312.8 230 312.213 228.4 311.04C226.907 309.867 225.733 308.267 224.88 306.24L190.48 226.08L195.12 225.12ZM165.52 286.88L174.32 268.48H217.52L220.56 286.88H165.52Z" fill="white"/>
<path d="M339 302.24C339 305.013 337.987 307.36 335.96 309.28C333.933 311.093 331.587 312 328.92 312C325.933 312 323.533 311.093 321.72 309.28C319.907 307.36 319 305.013 319 302.24V209.76C319 206.987 319.96 204.693 321.88 202.88C323.8 200.96 326.253 200 329.24 200C331.8 200 334.04 200.96 335.96 202.88C337.987 204.693 339 206.987 339 209.76V302.24Z" fill="white"/>
</svg>
